PathFileType  4	(X/Y/Z) C:\Users\antoi\Documents\MyRepositories\mobilecap\ResultsAnalysis
DataRate	CameraRate	NumFrames	NumMarkers	Units	OrigDataRate	OrigDataStartFrame	OrigNumFrames
100.0	100.0	6	51	mm	100.0	29	231
Frame#	Time	r_knee			r_shank_antsup			r_ankle			r_calc			r_5meta			r_toe			L_knee			L_shank_antsup			L_ankle			L_calc			L_5meta			L_toe			r_sh2			r_sh3			r_sh4			L_sh2			L_sh3			r_thigh1			r_thigh2			r_thigh3			r_thigh4			r_thigh5			L_thigh1			L_thigh2			L_thigh3			L_thigh4			r.ASIS			r.PSIS			L.ASIS			L.PSIS			C7			R_Shoulder			L_Shoulder			R_Sternum			L_Sternum			R_humerus			R_elbow_med			R_elbow_lat			R_forearm			R_wrist_radius			R_wrist_ulna			L_humerus			L_elbow_med			L_elbow_lat			L_forearm			L_wrist_radius			L_wrist_ulna			R_HJC			L_HJC			R_HJC_reg			L_HJC_reg			
		X1	Y1	Z1	X2	Y2	Z2	X3	Y3	Z3	X4	Y4	Z4	X5	Y5	Z5	X6	Y6	Z6	X7	Y7	Z7	X8	Y8	Z8	X9	Y9	Z9	X10	Y10	Z10	X11	Y11	Z11	X12	Y12	Z12	X13	Y13	Z13	X14	Y14	Z14	X15	Y15	Z15	X16	Y16	Z16	X17	Y17	Z17	X18	Y18	Z18	X19	Y19	Z19	X20	Y20	Z20	X21	Y21	Z21	X22	Y22	Z22	X23	Y23	Z23	X24	Y24	Z24	X25	Y25	Z25	X26	Y26	Z26	X27	Y27	Z27	X28	Y28	Z28	X29	Y29	Z29	X30	Y30	Z30	X31	Y31	Z31	X32	Y32	Z32	X33	Y33	Z33	X34	Y34	Z34	X35	Y35	Z35	X36	Y36	Z36	X37	Y37	Z37	X38	Y38	Z38	X39	Y39	Z39	X40	Y40	Z40	X41	Y41	Z41	X42	Y42	Z42	X43	Y43	Z43	X44	Y44	Z44	X45	Y45	Z45	X46	Y46	Z46	X47	Y47	Z47	X48	Y48	Z48	X49	Y49	Z49	X50	Y50	Z50	X51	Y51	Z51	

29	0.28000000	-1096.60357	825.33693	-430.95988	-1081.68970	722.84100	-445.78446	-1259.52927	426.47026	-478.30068	-1345.58737	381.86751	-526.55409	-1149.87025	357.77639	-435.89535	-1092.05672	385.67080	-498.98513	-1125.82759	840.25949	-732.63406	-1131.83744	750.57876	-754.88510	-1250.47693	430.32274	-709.83828	-1332.36539	381.44696	-658.27644	-1136.99098	360.87510	-736.79925	-1081.98114	391.02560	-670.78109	-1131.96174	622.44105	-426.39135	-1134.43232	756.48524	-402.08578	-1201.06784	661.08071	-398.05323	-1218.48640	777.39992	-754.50746	-1241.39105	657.28794	-750.33289	-1075.66437	1151.17441	-396.97511	-1052.74510	1045.30434	-410.77013	-1096.38678	1006.27406	-378.97357	-1182.52883	1122.37529	-380.64835	-1150.61376	1013.23703	-391.46563	-1086.66340	1135.17845	-731.56296	-1062.55630	997.00991	-719.91023	-1188.27046	1113.76438	-768.96270	-1170.38606	978.24968	-756.66944	-1072.49462	1345.25937	-440.81230	-1250.53137	1400.83903	-487.80632	-1096.74230	1356.13825	-683.29668	-1265.68816	1410.49044	-597.25083	-972.94969	1884.45309	-562.95044	-937.70392	1808.18216	-398.56893	-960.99639	1809.98119	-729.10850	-897.62611	1753.29559	-533.98570	-903.60060	1750.56806	-592.41665	-1013.26680	1675.50847	-323.30599	-1187.41989	1542.73586	-360.55011	-1167.85456	1554.86015	-280.02946	-1151.43199	1380.07796	-252.17529	-1121.10728	1287.62575	-253.17140	-1166.38431	1296.69768	-244.22369	-1022.50373	1700.43282	-809.59203	-1116.55886	1482.43812	-750.39107	-1108.71502	1490.59880	-830.24176	-1073.86282	1424.56211	-855.71754	-1031.19117	1249.85562	-859.45760	-1072.28741	1245.18401	-868.35254	-1177.95371	1250.47821	-453.16446	-1201.49476	1267.98647	-658.03518	-1147.78176	1277.51407	-470.78809	-1169.78406	1291.52446	-629.65908	
30	0.29000000	-1092.74281	823.25599	-429.87894	-1078.75549	720.83286	-444.67429	-1259.42008	426.08345	-478.16482	-1345.70137	381.71680	-526.49751	-1149.97299	357.59196	-435.53546	-1092.03984	385.38223	-498.83083	-1120.62982	838.38075	-731.86849	-1126.94550	748.90991	-754.31922	-1250.15921	430.38546	-709.78899	-1332.23826	381.24792	-658.05376	-1136.96238	360.81918	-736.64993	-1081.88130	390.70756	-670.54588	-1129.96848	620.50061	-425.53127	-1131.05702	754.00985	-401.73301	-1198.56868	660.07107	-397.37630	-1213.35279	776.72883	-753.95563	-1237.83888	657.08310	-750.01922	-1075.23888	1149.53297	-395.39760	-1051.20775	1043.95731	-408.89741	-1094.43835	1004.16822	-377.65929	-1181.82119	1119.59301	-380.07268	-1148.65198	1010.65535	-390.30751	-1085.35952	1133.52807	-730.70469	-1059.05165	995.83578	-719.16852	-1186.50308	1110.74963	-768.49425	-1166.66154	975.43885	-755.69882	-1071.83410	1341.39869	-439.77485	-1249.50855	1398.57788	-487.35185	-1096.31371	1352.30081	-682.53272	-1264.65953	1408.22985	-596.39874	-966.65369	1878.53287	-562.87572	-932.28662	1800.97409	-397.99927	-953.59627	1802.16416	-729.07338	-892.27013	1746.99089	-533.51559	-898.00536	1744.20179	-591.62336	-1004.51092	1666.49649	-324.08190	-1175.54594	1529.79724	-359.34801	-1155.18398	1541.32936	-278.81983	-1140.26777	1366.48696	-252.25367	-1111.23990	1273.70825	-253.60967	-1156.28998	1283.18605	-244.54010	-1013.20943	1692.05344	-810.00265	-1104.20594	1472.52305	-751.81821	-1094.37423	1480.45999	-831.42163	-1058.08336	1415.04864	-856.60445	-1014.14186	1240.56742	-858.41702	-1054.96975	1235.37752	-868.02127	-1178.29228	1247.61160	-452.22595	-1201.72131	1265.07505	-657.11333	-1147.78968	1274.21931	-469.64892	-1169.88845	1288.29792	-628.69822	
31	0.30000000	-1088.75933	820.92138	-428.72926	-1075.52606	718.43038	-443.42341	-1259.35828	425.58031	-478.19050	-1346.02195	381.54935	-526.38269	-1150.09362	357.39836	-435.11379	-1092.11016	385.02923	-498.70773	-1115.09931	836.27838	-731.08998	-1121.89310	746.93977	-753.60683	-1249.86895	430.30512	-709.64924	-1332.27078	381.12815	-657.78149	-1136.96231	360.75747	-736.51747	-1081.88231	390.34529	-670.34205	-1127.79572	618.45320	-424.56782	-1127.34599	751.92344	-400.28486	-1195.84848	658.63500	-396.48199	-1207.97046	776.03345	-753.33512	-1234.15629	656.93443	-749.74426	-1074.66796	1147.67241	-393.88701	-1049.30069	1042.27505	-407.04318	-1092.42252	1001.86973	-376.25051	-1180.58570	1116.00841	-379.15491	-1146.51011	1007.84608	-389.13936	-1083.85200	1131.44620	-730.17773	-1055.38787	994.28746	-718.83843	-1184.58115	1107.43617	-767.85863	-1162.87202	972.30237	-754.55649	-1071.09914	1337.40519	-438.81201	-1248.34242	1395.75103	-487.07049	-1095.96057	1348.09110	-681.90656	-1263.47303	1405.52793	-595.85223	-960.73060	1872.38768	-562.60375	-927.24272	1793.37058	-397.22469	-946.37500	1794.13195	-728.78893	-887.12265	1740.64096	-532.97165	-892.60085	1737.79014	-590.84679	-995.90836	1656.50893	-325.21326	-1163.43676	1515.59025	-357.96619	-1142.03216	1526.74485	-277.52739	-1127.06340	1352.31607	-252.12767	-1098.55985	1259.31006	-253.99893	-1143.41066	1268.79865	-244.60207	-1003.13510	1683.63074	-810.37231	-1091.07334	1462.07934	-753.30115	-1079.34907	1469.99464	-832.56468	-1041.45737	1405.25631	-857.27073	-995.23288	1231.35989	-857.48468	-1035.69641	1225.40636	-867.76908	-1178.40709	1244.43266	-451.37709	-1201.75142	1261.68835	-656.29176	-1147.61355	1270.35650	-468.73370	-1169.76563	1284.67022	-627.99952	
32	0.31000000	-1084.75820	818.48793	-427.22262	-1071.91899	715.62224	-442.13476	-1259.36404	425.02092	-478.27878	-1346.44353	381.52532	-526.16243	-1150.23105	357.06992	-434.76205	-1092.33298	384.57482	-498.58408	-1109.24391	834.01741	-730.67632	-1116.68849	744.69375	-752.83595	-1249.57621	430.07418	-709.32754	-1332.50757	381.30265	-657.42094	-1136.97524	360.71877	-736.43821	-1082.12899	389.83263	-669.99402	-1125.25214	616.26929	-423.68438	-1123.39368	750.06695	-398.50340	-1192.95231	656.94077	-395.49453	-1202.27087	775.23989	-752.72205	-1230.34025	656.64209	-749.42585	-1073.80563	1145.42427	-392.44853	-1046.73367	1040.25183	-405.42454	-1090.24554	999.70190	-374.18434	-1179.25327	1112.28681	-378.30489	-1144.27630	1004.83986	-388.00200	-1082.08808	1128.98328	-729.74485	-1051.53406	992.38548	-718.54758	-1182.46035	1103.71723	-766.58964	-1158.86283	968.92083	-753.65152	-1070.16573	1333.36124	-438.05144	-1247.13000	1392.75495	-486.61543	-1095.12369	1343.70781	-681.28052	-1262.07161	1402.47494	-595.43969	-955.20343	1866.11695	-562.17079	-922.50264	1785.37460	-396.53449	-939.43323	1786.19776	-728.28631	-882.10180	1734.29954	-532.33667	-887.28166	1731.39231	-590.06351	-987.41816	1646.01856	-326.46820	-1151.29034	1500.53253	-356.34801	-1128.39571	1511.56544	-276.12227	-1111.63560	1337.90762	-252.01118	-1082.78645	1244.95622	-254.55021	-1127.54919	1254.11683	-244.47382	-992.53989	1675.31245	-810.44190	-1077.53497	1451.29336	-755.11471	-1063.60147	1459.55310	-833.93614	-1023.86719	1395.54079	-857.65555	-974.42337	1222.53530	-856.63104	-1014.49632	1215.71280	-867.81258	-1178.17831	1241.09027	-450.53950	-1201.37871	1258.05856	-655.49463	-1147.26881	1266.61222	-467.98398	-1169.15390	1280.84920	-627.37874	
33	0.32000000	-1080.80683	815.93587	-425.34470	-1068.03633	712.58234	-440.87118	-1259.31684	424.55595	-478.13484	-1346.89721	381.62058	-525.83718	-1150.39615	356.62858	-434.50184	-1092.56388	384.08650	-498.40548	-1103.15944	831.47747	-730.41742	-1111.24162	742.29950	-752.07390	-1249.23789	429.80659	-708.81980	-1332.68524	381.41812	-657.11949	-1137.00207	360.70324	-736.35408	-1082.36466	389.41967	-669.68470	-1122.39800	613.91952	-422.81138	-1119.19905	747.61344	-396.92942	-1189.82542	655.09079	-394.53746	-1196.24734	774.22290	-752.27769	-1226.34211	656.05045	-749.06990	-1072.70629	1142.86323	-390.94862	-1043.80353	1038.16914	-403.66562	-1087.93286	997.62223	-371.55750	-1177.97488	1108.85025	-377.76425	-1141.96914	1001.84505	-386.59293	-1079.83223	1126.18963	-729.41334	-1047.34956	990.12965	-718.27978	-1179.97999	1099.58621	-765.19776	-1154.54913	965.32962	-753.06172	-1068.95521	1329.25584	-437.20759	-1245.99888	1389.90101	-485.87986	-1093.83220	1339.25664	-680.66613	-1260.60258	1399.11922	-595.09330	-950.03723	1859.85130	-561.45479	-917.95193	1777.37791	-395.86451	-932.69489	1778.65510	-727.71112	-877.16809	1728.07264	-531.52176	-882.02670	1725.10370	-589.29594	-978.85561	1635.98354	-327.58401	-1138.56090	1485.34606	-354.66787	-1114.20791	1496.50783	-274.70508	-1093.86388	1323.75128	-252.17404	-1063.77961	1231.33766	-255.20299	-1108.57339	1239.69019	-244.40183	-981.92029	1667.25348	-809.67170	-1063.99463	1440.44108	-757.18429	-1047.03483	1449.52043	-835.35130	-1005.15595	1386.53778	-858.09190	-951.73506	1214.66427	-855.83700	-991.40395	1206.79087	-867.94270	-1177.70569	1237.71703	-449.58105	-1200.70128	1254.29154	-654.59141	-1146.89728	1263.32378	-466.95022	-1168.24902	1276.80387	-626.61575	
34	0.33000000	-1076.71093	813.29989	-423.37235	-1064.07715	709.34713	-439.64302	-1259.15741	424.21029	-477.69494	-1347.23105	381.65400	-525.55556	-1150.55427	356.24638	-434.27071	-1092.69499	383.65275	-498.17178	-1096.81147	828.62821	-729.93968	-1105.53705	739.76343	-751.29461	-1248.90113	429.64873	-708.39408	-1332.67825	381.30727	-656.94713	-1137.05913	360.68329	-736.18627	-1082.26436	389.29975	-669.58400	-1119.53705	611.37574	-421.84557	-1114.83552	744.54097	-395.52894	-1186.50306	653.09562	-393.58987	-1189.95079	773.02486	-751.93391	-1222.06253	655.22386	-748.63316	-1071.62184	1140.03133	-389.09872	-1040.95608	1035.90294	-401.63514	-1085.56583	995.24754	-369.16257	-1176.62047	1105.70095	-376.94533	-1139.52165	998.82308	-385.02779	-1077.09711	1123.15290	-729.28516	-1042.76177	987.57769	-718.24615	-1177.04696	1095.16139	-764.46064	-1149.87222	961.39840	-752.28339	-1067.61549	1325.07924	-436.23983	-1244.77473	1386.88419	-485.48958	-1092.27116	1334.69904	-680.25545	-1259.21224	1395.51548	-595.07621	-945.08373	1853.78827	-560.49477	-913.56780	1769.89037	-395.30659	-926.00088	1771.78466	-727.38431	-872.29643	1721.79269	-530.78841	-876.89682	1719.02104	-588.50080	-970.17917	1627.22157	-328.41461	-1124.97198	1470.91636	-353.06689	-1099.51376	1482.46126	-273.39185	-1073.72808	1310.69220	-252.35488	-1041.40185	1219.26829	-255.88256	-1086.33048	1226.12749	-244.48892	-971.59443	1659.95928	-808.26520	-1049.55500	1430.05676	-758.81076	-1029.65793	1440.29205	-836.25555	-985.42451	1378.70714	-858.48560	-927.31216	1208.31892	-854.97534	-966.42364	1199.15505	-867.91633	-1177.10023	1234.22945	-448.77507	-1199.71486	1250.30778	-653.86726	-1146.20161	1259.90993	-465.70018	-1167.29733	1272.52130	-625.81775	
